<?xml version="1.0" standalone="no"?>
<!DOCTYPE svg PUBLIC "-//W3C//DTD SVG 20010904//EN"
 "http://www.w3.org/TR/2001/REC-SVG-20010904/DTD/svg10.dtd">
<svg version="1.0" xmlns="http://www.w3.org/2000/svg"
 width="100.000000pt" height="100.000000pt" viewBox="0 0 100.000000 100.000000"
 preserveAspectRatio="xMidYMid meet">

<g transform="translate(0.000000,100.000000) scale(0.100000,-0.100000)"
fill="#000000" stroke="none">
<path d="M112 497 c-34 -100 -62 -186 -62 -190 0 -5 17 -7 37 -5 33 3 38 7 51
46 l14 42 73 0 73 0 15 -42 c13 -41 16 -43 52 -43 36 0 39 2 53 43 l14 42 73
0 73 0 14 -42 15 -43 56 -3 56 -3 3 87 3 88 70 -87 c65 -81 72 -87 108 -87 20
0 37 5 37 10 0 6 -33 52 -74 103 l-74 91 61 76 c33 41 65 81 70 88 7 9 0 12
-31 12 -38 0 -43 -4 -99 -75 -32 -41 -61 -74 -65 -75 -5 0 -8 34 -8 75 l0 75
-35 0 -34 0 -3 -127 -3 -128 -45 128 -45 127 -50 0 -51 0 -43 -132 -44 -133
-43 120 c-24 66 -43 126 -43 133 -1 8 -18 12 -53 12 l-53 0 -63 -183z m137 41
c29 -86 28 -88 -22 -88 -24 0 -46 3 -50 6 -4 5 11 58 38 132 8 21 13 14 34
-50z m280 0 c29 -86 28 -88 -22 -88 -24 0 -46 2 -49 5 -4 4 7 45 37 133 7 21
13 14 34 -50z"/>
</g>
</svg>
